<svg width="90" height="88" viewBox="0 0 90 88" fill="none" xmlns="http://www.w3.org/2000/svg">
<path d="M22.12 79.504C20.128 79.504 18.28 79.192 16.576 78.568C14.872 77.92 13.396 77.008 12.148 75.832C10.924 74.656 9.964 73.276 9.268 71.692C8.572 70.084 8.224 68.32 8.224 66.4C8.224 64.48 8.572 62.728 9.268 61.144C9.964 59.536 10.936 58.144 12.184 56.968C13.432 55.792 14.908 54.892 16.612 54.268C18.34 53.62 20.224 53.296 22.264 53.296C24.64 53.296 26.764 53.692 28.636 54.484C30.508 55.276 32.056 56.416 33.28 57.904L28.744 62.008C27.88 61.072 26.944 60.376 25.936 59.92C24.952 59.44 23.848 59.2 22.624 59.2C21.544 59.2 20.56 59.368 19.672 59.704C18.784 60.04 18.028 60.532 17.404 61.18C16.78 61.804 16.288 62.56 15.928 63.448C15.592 64.312 15.424 65.296 15.424 66.4C15.424 67.456 15.592 68.428 15.928 69.316C16.288 70.204 16.78 70.972 17.404 71.62C18.028 72.244 18.772 72.736 19.636 73.096C20.524 73.432 21.496 73.6 22.552 73.6C23.608 73.6 24.64 73.432 25.648 73.096C26.656 72.736 27.676 72.136 28.708 71.296L32.704 76.3C31.264 77.332 29.596 78.124 27.7 78.676C25.804 79.228 23.944 79.504 22.12 79.504ZM26.404 75.364V65.86H32.704V76.3L26.404 75.364ZM47.1231 79.324C44.8191 79.324 42.8031 78.892 41.0751 78.028C39.3711 77.14 38.0391 75.94 37.0791 74.428C36.1431 72.892 35.6751 71.152 35.6751 69.208C35.6751 67.264 36.1311 65.536 37.0431 64.024C37.9791 62.488 39.2631 61.3 40.8951 60.46C42.5271 59.596 44.3631 59.164 46.4031 59.164C48.3231 59.164 50.0751 59.56 51.6591 60.352C53.2431 61.12 54.5031 62.26 55.4391 63.772C56.3751 65.284 56.8431 67.12 56.8431 69.28C56.8431 69.52 56.8311 69.796 56.8071 70.108C56.7831 70.42 56.7591 70.708 56.7351 70.972H41.2911V67.372H53.0991L50.5071 68.38C50.5311 67.492 50.3631 66.724 50.0031 66.076C49.6671 65.428 49.1871 64.924 48.5631 64.564C47.9631 64.204 47.2551 64.024 46.4391 64.024C45.6231 64.024 44.9031 64.204 44.2791 64.564C43.6791 64.924 43.2111 65.44 42.8751 66.112C42.5391 66.76 42.3711 67.528 42.3711 68.416V69.46C42.3711 70.42 42.5631 71.248 42.9471 71.944C43.3551 72.64 43.9311 73.18 44.6751 73.564C45.4191 73.924 46.3071 74.104 47.3391 74.104C48.2991 74.104 49.1151 73.972 49.7871 73.708C50.4831 73.42 51.1671 72.988 51.8391 72.412L55.4391 76.156C54.5031 77.188 53.3511 77.98 51.9831 78.532C50.6151 79.06 48.9951 79.324 47.1231 79.324ZM72.7048 59.164C74.2168 59.164 75.5848 59.476 76.8088 60.1C78.0328 60.7 78.9928 61.636 79.6888 62.908C80.4088 64.18 80.7688 65.824 80.7688 67.84V79H73.9288V68.956C73.9288 67.564 73.6408 66.556 73.0648 65.932C72.5128 65.284 71.7328 64.96 70.7248 64.96C70.0048 64.96 69.3448 65.128 68.7448 65.464C68.1448 65.776 67.6768 66.268 67.3408 66.94C67.0048 67.612 66.8368 68.488 66.8368 69.568V79H59.9968V59.488H66.5128V65.032L65.2528 63.412C65.9968 61.996 67.0168 60.94 68.3128 60.244C69.6088 59.524 71.0728 59.164 72.7048 59.164Z" fill="#BC61F3"/>
<path d="M2.52 35V9.8H8.388L22.284 26.576H19.512V9.8H26.496V35H20.628L6.732 18.224H9.504V35H2.52ZM41.4239 35.324C39.1199 35.324 37.1039 34.892 35.3759 34.028C33.6719 33.14 32.3399 31.94 31.3799 30.428C30.4439 28.892 29.9759 27.152 29.9759 25.208C29.9759 23.264 30.4319 21.536 31.3439 20.024C32.2799 18.488 33.5639 17.3 35.1959 16.46C36.8279 15.596 38.6639 15.164 40.7039 15.164C42.6239 15.164 44.3759 15.56 45.9599 16.352C47.5439 17.12 48.8039 18.26 49.7399 19.772C50.6759 21.284 51.1439 23.12 51.1439 25.28C51.1439 25.52 51.1319 25.796 51.1079 26.108C51.0839 26.42 51.0599 26.708 51.0359 26.972H35.5919V23.372H47.3999L44.8079 24.38C44.8319 23.492 44.6639 22.724 44.3039 22.076C43.9679 21.428 43.4879 20.924 42.8639 20.564C42.2639 20.204 41.5559 20.024 40.7399 20.024C39.9239 20.024 39.2039 20.204 38.5799 20.564C37.9799 20.924 37.5119 21.44 37.1759 22.112C36.8399 22.76 36.6719 23.528 36.6719 24.416V25.46C36.6719 26.42 36.8639 27.248 37.2479 27.944C37.6559 28.64 38.2319 29.18 38.9759 29.564C39.7199 29.924 40.6079 30.104 41.6399 30.104C42.5999 30.104 43.4159 29.972 44.0879 29.708C44.7839 29.42 45.4679 28.988 46.1399 28.412L49.7399 32.156C48.8039 33.188 47.6519 33.98 46.2839 34.532C44.9159 35.06 43.2959 35.324 41.4239 35.324ZM51.5022 35L60.4662 23.228L60.3222 27.116L51.7182 15.488H59.4222L64.2462 22.364L61.3662 22.508L66.4782 15.488H73.7142L65.1102 26.864V23.12L73.9662 35H66.1542L61.1142 27.656L63.9942 28.052L58.9182 35H51.5022ZM84.7713 35.324C82.2753 35.324 80.3313 34.712 78.9393 33.488C77.5473 32.24 76.8513 30.368 76.8513 27.872V11.132H83.6913V27.8C83.6913 28.496 83.8833 29.048 84.2673 29.456C84.6513 29.84 85.1433 30.032 85.7433 30.032C86.5593 30.032 87.2553 29.828 87.8313 29.42L89.5233 34.208C88.9473 34.592 88.2393 34.868 87.3993 35.036C86.5593 35.228 85.6833 35.324 84.7713 35.324ZM74.0073 21.32V16.208H88.1553V21.32H74.0073Z" fill="#BC61F3"/>
</svg>
