<svg width="88" height="26" viewBox="0 0 88 26" fill="none" xmlns="http://www.w3.org/2000/svg">
<path d="M0.52 25.5V0.299998H6.388L20.284 17.076H17.512V0.299998H24.496V25.5H18.628L4.732 8.724H7.504V25.5H0.52ZM39.4239 25.824C37.1199 25.824 35.1039 25.392 33.3759 24.528C31.6719 23.64 30.3399 22.44 29.3799 20.928C28.4439 19.392 27.9759 17.652 27.9759 15.708C27.9759 13.764 28.4319 12.036 29.3439 10.524C30.2799 8.988 31.5639 7.8 33.1959 6.96C34.8279 6.096 36.6639 5.664 38.7039 5.664C40.6239 5.664 42.3759 6.06 43.9599 6.852C45.5439 7.62 46.8039 8.76 47.7399 10.272C48.6759 11.784 49.1439 13.62 49.1439 15.78C49.1439 16.02 49.1319 16.296 49.1079 16.608C49.0839 16.92 49.0599 17.208 49.0359 17.472H33.5919V13.872H45.3999L42.8079 14.88C42.8319 13.992 42.6639 13.224 42.3039 12.576C41.9679 11.928 41.4879 11.424 40.8639 11.064C40.2639 10.704 39.5559 10.524 38.7399 10.524C37.9239 10.524 37.2039 10.704 36.5799 11.064C35.9799 11.424 35.5119 11.94 35.1759 12.612C34.8399 13.26 34.6719 14.028 34.6719 14.916V15.96C34.6719 16.92 34.8639 17.748 35.2479 18.444C35.6559 19.14 36.2319 19.68 36.9759 20.064C37.7199 20.424 38.6079 20.604 39.6399 20.604C40.5999 20.604 41.4159 20.472 42.0879 20.208C42.7839 19.92 43.4679 19.488 44.1399 18.912L47.7399 22.656C46.8039 23.688 45.6519 24.48 44.2839 25.032C42.9159 25.56 41.2959 25.824 39.4239 25.824ZM49.5022 25.5L58.4662 13.728L58.3222 17.616L49.7182 5.988H57.4222L62.2462 12.864L59.3662 13.008L64.4782 5.988H71.7142L63.1102 17.364V13.62L71.9662 25.5H64.1542L59.1142 18.156L61.9942 18.552L56.9182 25.5H49.5022ZM82.7713 25.824C80.2753 25.824 78.3313 25.212 76.9393 23.988C75.5473 22.74 74.8513 20.868 74.8513 18.372V1.632H81.6913V18.3C81.6913 18.996 81.8833 19.548 82.2673 19.956C82.6513 20.34 83.1433 20.532 83.7433 20.532C84.5593 20.532 85.2553 20.328 85.8313 19.92L87.5233 24.708C86.9473 25.092 86.2393 25.368 85.3993 25.536C84.5593 25.728 83.6833 25.824 82.7713 25.824ZM72.0073 11.82V6.708H86.1553V11.82H72.0073Z" fill="url(#paint0_linear_2_320)"/>
<defs>
<linearGradient id="paint0_linear_2_320" x1="43" y1="-9.5" x2="43" y2="34.5" gradientUnits="userSpaceOnUse">
<stop stop-color="#5C43F6"/>
<stop offset="1" stop-color="#BC61F3"/>
</linearGradient>
</defs>
</svg>
